HIERARCHY
ROOT Hips
{
	OFFSET -3.958830 18.904000 13.208200
	CHANNELS 6 Xposition Yposition Zposition Zrotation Yrotation Xrotation 
	JOINT LHipJoint
	{
		OFFSET 0.000000 0.000000 0.000000
		CHANNELS 3 Zrotation Yrotation Xrotation
		JOINT LeftUpLeg
		{
			OFFSET 1.800000 -1.400000 0.085000
			CHANNELS 3 Zrotation Yrotation Xrotation
			JOINT LeftLeg
			{
				OFFSET 2.215000 -6.000000 0.000000
				CHANNELS 3 Zrotation Yrotation Xrotation
				JOINT LeftFoot
				{
					OFFSET 2.500000 -6.900000 0.000000
					CHANNELS 3 Zrotation Yrotation Xrotation
					JOINT LeftToeBase
					{
						OFFSET 0.200000 -0.500000 1.950000
						CHANNELS 3 Zrotation Yrotation Xrotation
						End Site
						{
							OFFSET 0.000000 0.000000 0.000000
						}
					}
				}
			}
		}
	}
	JOINT RHipJoint
	{
		OFFSET 0.000000 0.000000 0.000000
		CHANNELS 3 Zrotation Yrotation Xrotation
		JOINT RightUpLeg
		{
			OFFSET -1.800000 -1.400000 0.085000
			CHANNELS 3 Zrotation Yrotation Xrotation
			JOINT RightLeg
			{
				OFFSET -2.215000 -6.000000 0.000000
				CHANNELS 3 Zrotation Yrotation Xrotation
				JOINT RightFoot
				{
					OFFSET -2.500000 -6.900000 0.000000
					CHANNELS 3 Zrotation Yrotation Xrotation
					JOINT RightToeBase
					{
						OFFSET -0.200000 -0.500000 1.950000
						CHANNELS 3 Zrotation Yrotation Xrotation
						End Site
						{
							OFFSET 0.000000 0.000000 0.000000
						}
					}
				}
			}
		}
	}
	JOINT LowerBack
	{
		OFFSET 0.000000 0.000000 0.000000
		CHANNELS 3 Zrotation Yrotation Xrotation
		JOINT Spine
		{
			OFFSET -0.087000 1.940000 -0.288900
			CHANNELS 3 Zrotation Yrotation Xrotation
			JOINT Spine1
			{
				OFFSET 0.000000 1.950000 0.060000
				CHANNELS 3 Zrotation Yrotation Xrotation
				JOINT Neck
				{
					OFFSET 0.000000 0.000000 0.000000
					CHANNELS 3 Zrotation Yrotation Xrotation
					JOINT Neck1
					{
						OFFSET 0.000000 1.600000 0.340000
						CHANNELS 3 Zrotation Yrotation Xrotation
						JOINT Head
						{
							OFFSET 0.000000 1.667000 -0.240000
							CHANNELS 3 Zrotation Yrotation Xrotation
							End Site
							{
								OFFSET 0.000000 0.000000 0.000000
							}
						}
					}
				}
				JOINT LeftShoulder
				{
					OFFSET 0.000000 0.000000 0.000000
					CHANNELS 3 Zrotation Yrotation Xrotation
					JOINT LeftArm
					{
						OFFSET 2.700000 1.550000 -0.730000
						CHANNELS 3 Zrotation Yrotation Xrotation
						JOINT LeftForeArm
						{
							OFFSET 5.450000 0.000000 0.000000
							CHANNELS 3 Zrotation Yrotation Xrotation
							JOINT LeftHand
							{
								OFFSET 3.450000 0.000000 0.000000
								CHANNELS 3 Zrotation Yrotation Xrotation
								JOINT LeftHandIndex1
								{
									OFFSET 0.750000 0.000000 0.000000
									CHANNELS 3 Zrotation Yrotation Xrotation
									End Site
									{
										OFFSET 0.000000 0.000000 0.000000
									}
								}
							}
						}
					}
				}
				JOINT RightShoulder
				{
					OFFSET 0.000000 0.000000 0.000000
					CHANNELS 3 Zrotation Yrotation Xrotation
					JOINT RightArm
					{
						OFFSET -2.700000 1.550000 -0.730000
						CHANNELS 3 Zrotation Yrotation Xrotation
						JOINT RightForeArm
						{
							OFFSET -5.450000 0.000000 0.000000
							CHANNELS 3 Zrotation Yrotation Xrotation
							JOINT RightHand
							{
								OFFSET -3.450000 0.000000 0.000000
								CHANNELS 3 Zrotation Yrotation Xrotation
								JOINT RightHandIndex1
								{
									OFFSET -0.750000 0.000000 0.000000
									CHANNELS 3 Zrotation Yrotation Xrotation
									End Site
									{
										OFFSET 0.000000 0.000000 0.000000
									}
								}
							}
						}
					}
				}
			}
		}
	}
}
MOTION
Frames: 10
Frame Time: 0.016667
-0.356140 16.512100 -1.941020 -0.125769 15.873089 6.622542 -15.379925 12.852011 3.575025 19.388599 -4.116673 -35.128505 13.400864 4.109360 45.160436 0.022069 7.127343 1.686651 0.702670 0.642640 0.550090 18.271371 -9.139967 4.220851 -19.132753 5.535215 -49.064662 -11.330602 -2.540865 39.084478 -0.622420 -4.502237 2.512585 0.356000 -0.386340 0.034360 -3.475091 -2.929537 -9.268164 9.775050 -4.044481 31.324228 -2.900404 0.153463 0.950289 2.281529 -5.779237 -12.660662 -16.825956 0.908298 48.129142 1.832440 -5.571600 -25.163120 -37.549708 -23.911454 4.013180 -42.558486 -20.112840 -3.251964 -8.095301 -26.115305 0.111161 -3.118940 2.960823 0.628110 -0.409810 0.435830 0.080570 33.341753 29.869087 8.395318 40.747603 21.250655 -3.725941 -2.853948 16.866486 -1.019256 2.410919 -1.117127 0.040180 0.239080 -0.219190 -0.170000 
-0.352840 16.434030 -1.961350 -0.164732 16.253675 6.283392 -15.402041 12.783480 3.654982 20.004935 -4.190750 -35.655285 13.335481 4.365380 46.574275 0.083217 7.413587 1.594748 0.673740 0.604110 0.528270 18.271642 -9.025477 4.259517 -19.612841 5.650427 -49.532480 -11.459198 -2.660457 40.666251 -0.647271 -4.775325 2.428442 0.331790 -0.370410 0.030450 -3.438700 -3.015290 -9.356102 9.794071 -4.152337 32.265345 -2.919691 0.261831 0.780385 2.364196 -5.800773 -13.571176 -17.176585 1.135940 48.918757 1.993930 -5.790230 -23.739720 -37.699971 -24.709264 4.313167 -40.496065 -19.134946 -3.677131 -6.638444 -25.130728 -0.142994 -3.121097 2.956069 0.617530 -0.400450 0.417140 0.076320 33.439422 30.729362 9.041180 38.723459 20.630361 -3.615640 -4.831626 14.162702 -1.068669 2.459046 -1.110774 0.035120 0.232110 -0.206230 -0.165860 
-0.348940 16.263710 -1.990110 -0.433499 17.075516 5.467775 -15.454697 12.680688 3.763309 21.347542 -4.147036 -36.435134 13.376611 4.764608 48.902577 0.205869 7.868312 1.446279 0.647990 0.572940 0.507090 18.269369 -8.767568 4.357586 -20.081180 6.172452 -50.589526 -12.373959 -2.671921 44.826630 -0.758329 -5.468091 2.207728 0.298690 -0.374640 0.024740 -3.345218 -3.265862 -9.503365 9.980912 -4.470569 34.562052 -2.832290 0.426874 -0.062235 2.605213 -5.989683 -14.932259 -18.023656 1.216275 49.402887 2.076230 -6.278920 -22.569540 -38.228372 -25.458607 4.588245 -37.344962 -17.352296 -4.225365 -4.139861 -23.051173 -0.511072 -3.104197 2.956005 0.605560 -0.407940 0.411340 0.075340 33.697502 31.733762 10.121144 34.872146 18.700542 -3.857171 -7.465859 10.688369 -1.014929 2.544901 -1.109291 0.046050 0.211230 -0.206340 -0.155230 
-0.358370 16.084520 -2.025340 -0.573249 17.842536 4.277127 -15.523185 12.527446 3.917949 22.987176 -4.191790 -37.371696 12.856290 5.550409 51.988209 0.359275 8.461178 1.256320 0.623940 0.544690 0.480910 18.268630 -8.446589 4.457836 -20.035015 6.925974 -51.857833 -14.399289 -2.156139 49.737400 -0.921567 -6.312518 1.948406 0.264460 -0.379870 0.015320 -3.218494 -3.564345 -9.663296 9.653638 -4.697702 38.260116 -2.765639 0.708287 -1.710021 2.814799 -6.275547 -16.358239 -19.151385 1.356904 49.515252 2.651900 -6.844960 -21.706410 -38.987002 -25.995373 4.636391 -33.318709 -15.397992 -4.751503 -2.564742 -21.227738 -0.597328 -3.081610 2.958655 0.598580 -0.422460 0.407710 0.078910 34.368935 32.561549 11.329846 30.437339 16.033574 -3.744815 -7.679629 7.411426 -0.614953 2.637547 -1.072557 0.057470 0.191630 -0.209290 -0.142050 
-0.369090 15.942910 -2.064070 -0.766356 18.550518 2.314326 -15.571396 12.464623 4.030234 24.309778 -4.396170 -37.741130 12.691678 5.975347 54.804107 0.481579 8.960681 1.092846 0.621230 0.527780 0.491650 18.259984 -8.268841 4.456765 -19.432042 7.664795 -52.020884 -16.520280 -1.331387 53.912443 -1.102238 -7.033035 1.721899 0.237230 -0.410630 0.009840 -3.126353 -3.794917 -9.735037 9.010042 -5.009050 43.145467 -2.973959 0.879766 -3.799738 3.092598 -6.314066 -17.576392 -19.976420 1.464088 50.398983 3.411670 -7.351800 -22.281370 -39.567070 -26.161092 4.575701 -29.189723 -13.384446 -5.051186 -0.158372 -18.698336 -0.798837 -3.069729 2.917969 0.631190 -0.461860 0.432710 0.072360 34.709754 32.909570 12.228647 26.692335 13.332965 -3.528984 -7.268597 4.672809 -0.224393 2.721480 -0.994323 0.065060 0.181800 -0.216330 -0.145950 
-0.370180 15.833280 -2.107360 -0.938092 19.026353 -0.005604 -15.595611 12.442235 4.119264 25.055417 -4.902348 -37.916407 13.179397 5.913205 58.005272 0.600907 9.478263 0.931706 0.607110 0.499660 0.494160 18.256642 -8.223316 4.365069 -18.494130 8.173593 -51.377340 -18.867596 -0.161745 56.695033 -1.251459 -7.568409 1.560133 0.212460 -0.424950 0.003900 -3.087415 -3.912118 -9.734039 8.238590 -5.297984 48.578139 -3.201555 0.951980 -6.203104 3.251305 -6.284518 -18.185795 -20.530118 1.577428 51.031806 4.295100 -7.689230 -23.096280 -39.630868 -25.796087 4.324004 -25.506998 -11.403858 -5.055341 1.447712 -16.403191 -0.865425 -3.090267 2.848547 0.669530 -0.490210 0.450800 0.061810 34.704902 32.542255 12.735995 23.444102 10.564217 -3.239536 -5.912815 2.823769 0.082573 2.769673 -0.885176 0.057090 0.187730 -0.208740 -0.153850 
-0.378500 15.750440 -2.136090 -0.811417 19.898561 -2.100075 -15.603427 12.441176 4.196155 25.352289 -5.457338 -38.015838 13.678139 5.715915 60.518467 0.696142 9.857816 0.815630 0.592320 0.479610 0.489260 18.249920 -8.312095 4.194651 -17.933657 8.218676 -50.047317 -20.719986 0.858248 58.489998 -1.364445 -7.966457 1.442517 0.192340 -0.431700 0.002500 -3.083738 -3.894164 -9.693749 7.375112 -5.228554 53.142436 -3.331808 1.077600 -7.909496 3.242630 -6.004762 -18.139769 -20.137799 1.174735 51.197697 5.351310 -7.973910 -24.021900 -39.044581 -25.044963 4.023990 -22.641463 -9.156886 -5.071932 2.333762 -15.148000 -0.855740 -3.110481 2.800144 0.696380 -0.507080 0.463190 0.051550 34.216242 31.547226 13.018782 21.548863 7.552130 -3.150565 -5.286655 1.675554 0.247704 2.789350 -0.819290 0.052900 0.189720 -0.199120 -0.158110 
-0.403550 15.686650 -2.149760 -0.866503 20.541103 -3.862515 -15.605522 12.502985 4.190608 25.868061 -5.443196 -37.585676 14.273930 5.486128 61.523249 0.750064 10.006405 0.766695 0.593890 0.488280 0.489770 18.235483 -8.449071 4.041721 -17.124344 8.339628 -48.543318 -22.084362 1.804220 59.385977 -1.441908 -8.206614 1.373941 0.188300 -0.441270 0.008760 -3.079787 -3.825491 -9.622880 6.641867 -4.659936 55.953326 -3.142727 1.483749 -8.014886 3.065652 -5.781301 -17.417185 -19.547932 0.455476 51.065386 5.766990 -8.266170 -24.717480 -37.891880 -23.842703 3.644038 -20.653437 -7.058831 -5.128692 3.048825 -14.875062 -0.849786 -3.123930 2.788772 0.698560 -0.513190 0.475470 0.048470 33.358789 30.174493 13.120688 21.076810 4.709699 -3.185111 -5.374952 1.001281 0.327666 2.793919 -0.817977 0.064750 0.182390 -0.201690 -0.154460 
-0.435650 15.676210 -2.168700 -0.943204 21.597686 -5.132608 -15.607581 12.678752 4.124593 25.801219 -5.350250 -36.890083 15.213006 4.744041 60.612312 0.725135 9.824778 0.821392 0.601290 0.502450 0.489470 18.194163 -8.656290 3.860946 -16.675362 8.072167 -46.702588 -22.343748 2.105665 59.385136 -1.454861 -8.224462 1.368079 0.194180 -0.440810 0.010020 -3.057192 -3.834645 -9.491706 6.098310 -4.103715 57.434436 -2.532470 1.829153 -6.774131 2.794609 -5.792118 -16.549414 -19.400973 -0.007941 50.927038 6.721610 -8.641890 -25.459320 -36.749081 -22.587017 3.363055 -20.018837 -5.328670 -5.451057 4.983662 -15.414917 -1.049173 -3.127976 2.800463 0.698530 -0.518430 0.480750 0.050070 32.638006 28.906992 13.181114 21.058222 2.276806 -3.270549 -5.850113 0.088833 0.403367 2.803701 -0.830800 0.070520 0.184400 -0.205320 -0.147980 
-0.461120 15.734080 -2.225400 -0.975081 22.669173 -5.424110 -15.608218 12.819520 4.065421 25.167980 -5.205262 -36.651986 15.689468 4.139476 58.188047 0.631284 9.405496 0.952224 0.596940 0.501440 0.482580 18.159676 -8.813522 3.735054 -16.922648 7.662775 -45.493951 -21.273196 1.583440 58.089611 -1.376242 -7.930384 1.453225 0.195410 -0.428500 0.013290 -3.044327 -3.851244 -9.367378 5.862394 -3.768241 58.172446 -2.070251 1.988861 -5.088292 2.591293 -5.813352 -15.634307 -19.023148 -0.414663 50.188214 7.345870 -8.710640 -26.143360 -35.517925 -21.307501 3.278479 -20.591531 -3.578862 -5.833353 7.720706 -16.004020 -1.397044 -3.143650 2.815557 0.696260 -0.512830 0.476540 0.049410 31.586254 27.741314 12.992355 21.439703 0.731073 -3.439497 -6.470839 -0.541176 0.463078 2.806191 -0.849169 0.067810 0.189850 -0.199730 -0.144400 
